<?xml version="1.0" standalone="no"?>
<!DOCTYPE svg PUBLIC "-//W3C//DTD SVG 20010904//EN"
 "http://www.w3.org/TR/2001/REC-SVG-20010904/DTD/svg10.dtd">
<svg version="1.0" xmlns="http://www.w3.org/2000/svg"
 width="512.000000pt" height="513.000000pt" viewBox="0 0 512.000000 513.000000"
 preserveAspectRatio="xMidYMid meet">
<metadata>

</metadata>
<g transform="translate(0.000000,513.000000) scale(0.100000,-0.100000)"
fill="#000000" stroke="none">
<path d="M1963 5111 c-104 -38 -177 -84 -255 -162 -62 -62 -85 -94 -121 -170
-59 -122 -67 -167 -67 -364 l0 -164 -594 -3 c-583 -3 -595 -3 -622 -24 -95
-71 -97 -198 -4 -261 32 -22 41 -23 246 -23 l214 0 2 -1787 c4 -1963 -2 -1810
65 -1924 34 -59 114 -139 167 -166 16 -8 54 -24 84 -34 53 -18 109 -19 1481
-19 1540 0 1457 -3 1567 53 61 31 149 118 179 177 59 116 55 -8 55 1927 l0
1773 213 0 c194 0 215 2 245 20 95 58 95 208 -1 266 -30 18 -62 19 -618 22
l-586 3 -6 177 c-6 197 -16 245 -73 362 -47 94 -168 220 -264 273 -125 68
-114 67 -714 67 -502 -1 -545 -2 -593 -19z m1132 -311 c74 -36 147 -114 175
-185 19 -50 24 -85 28 -212 l4 -153 -737 0 -737 0 4 168 c3 160 4 169 31 220
45 86 126 155 217 183 14 4 237 7 495 6 l470 -2 50 -25z m955 -2617 c0 -1737
0 -1758 -20 -1791 -11 -18 -34 -41 -52 -52 -33 -20 -54 -20 -1419 -20 l-1386
0 -34 23 c-19 12 -42 38 -51 57 -17 33 -18 139 -18 1788 l0 1752 1490 0 1490
0 0 -1757z"/>
<path d="M1736 2230 c-16 -5 -40 -19 -53 -32 -55 -51 -53 -20 -53 -803 0 -650
2 -731 16 -761 53 -111 220 -110 274 1 20 41 20 57 18 773 -3 720 -3 731 -24
758 -44 59 -113 84 -178 64z"/>
<path d="M2518 2230 c-37 -11 -68 -34 -89 -67 -18 -27 -19 -65 -19 -769 l0
-741 23 -34 c62 -93 191 -91 261 4 21 28 21 33 21 765 0 722 0 738 -20 772
-12 21 -39 44 -65 58 -46 23 -68 26 -112 12z"/>
<path d="M3270 2218 c-26 -14 -53 -37 -65 -58 -20 -34 -20 -50 -20 -772 0
-732 0 -737 21 -765 70 -95 199 -97 261 -4 l23 34 0 740 0 740 -22 35 c-22 36
-85 71 -128 72 -14 0 -46 -10 -70 -22z"/>
</g>
</svg>
