<?xml version="1.0" standalone="no"?>
<!DOCTYPE svg PUBLIC "-//W3C//DTD SVG 20010904//EN"
 "http://www.w3.org/TR/2001/REC-SVG-20010904/DTD/svg10.dtd">
<svg version="1.0" xmlns="http://www.w3.org/2000/svg"
 width="512.000000pt" height="512.000000pt" viewBox="0 0 512.000000 512.000000"
 preserveAspectRatio="xMidYMid meet">
<metadata>
Created by potrace 1.16, written by Peter Selinger 2001-2019
</metadata>
<g transform="translate(0.000000,512.000000) scale(0.100000,-0.100000)"
fill="#000000" stroke="none">
<path d="M2925 5101 c-49 -23 -99 -74 -119 -123 -33 -77 -11 -194 47 -257 12
-13 45 -34 72 -47 l50 -24 670 0 670 0 -1212 -1212 c-860 -861 -1217 -1224
-1228 -1250 -19 -48 -19 -138 1 -186 20 -49 70 -100 119 -123 49 -23 142 -25
193 -4 26 11 389 368 1250 1228 l1212 1212 0 -670 0 -670 24 -50 c13 -27 34
-60 47 -72 66 -60 185 -80 264 -44 51 23 111 89 125 138 8 27 10 326 8 1029
l-3 991 -30 48 c-22 36 -45 57 -84 77 l-53 28 -992 0 c-944 0 -993 -1 -1031
-19z"/>
<path d="M135 4171 c-54 -24 -100 -72 -119 -123 -15 -39 -16 -219 -14 -1969
l3 -1926 30 -48 c22 -36 45 -57 84 -77 l53 -28 1922 0 1922 0 52 26 c56 28
107 93 117 148 3 17 4 580 3 1251 l-3 1220 -28 42 c-105 162 -347 138 -422
-41 -13 -30 -15 -185 -15 -1106 l0 -1070 -1625 0 -1625 0 0 1625 0 1625 1070
0 c921 0 1076 2 1106 15 179 75 203 317 41 422 l-42 28 -1235 2 c-1180 3
-1237 2 -1275 -16z"/>
</g>
</svg>
