<?xml version="1.0" standalone="no"?>
<!DOCTYPE svg PUBLIC "-//W3C//DTD SVG 20010904//EN"
 "http://www.w3.org/TR/2001/REC-SVG-20010904/DTD/svg10.dtd">
<svg version="1.0" xmlns="http://www.w3.org/2000/svg"
 width="80" height="40" viewBox="0 -90 740 639"
 preserveAspectRatio="xMidYMid meet">

<g transform="translate(0.000000,439.000000) scale(0.100000,-0.100000)"
fill="white" stroke="none">
<path d="M3502 3950 c-113 -57 -175 -165 -188 -322 -7 -81 -8 -84 -46 -118
-22 -19 -99 -89 -170 -155 -205 -190 -343 -282 -567 -381 -465 -204 -734 -203
-939 4 -51 52 -74 88 -128 197 -36 73 -73 140 -82 148 -15 14 -105 35 -219 52
-55 9 -87 34 -101 82 -62 201 -217 238 -404 95 -101 -77 -155 -198 -145 -327
7 -91 27 -143 87 -232 28 -41 50 -78 50 -84 0 -6 -11 -48 -25 -93 -80 -261
-152 -773 -171 -1204 l-7 -153 -86 -122 c-118 -166 -150 -218 -156 -253 -6
-29 26 -235 67 -426 28 -133 46 -153 178 -196 300 -99 705 -172 1265 -227 298
-30 920 -36 3150 -32 1931 4 2207 6 2332 20 466 53 677 122 860 283 81 71 108
118 127 223 42 220 -10 432 -137 561 -67 68 -188 127 -517 251 -950 358 -1217
471 -1460 615 -102 61 -284 166 -405 234 -255 143 -552 321 -885 531 -219 138
-237 151 -260 196 -83 158 -301 450 -463 620 -167 174 -265 232 -407 240 -80
5 -88 3 -148 -27z m201 -231 c42 -21 294 -265 285 -275 -3 -3 -48 17 -99 45
-106 56 -202 91 -251 91 -46 0 -78 24 -78 59 0 43 50 97 93 100 4 1 27 -9 50
-20z m-2816 -270 c25 -47 16 -89 -31 -148 -24 -31 -60 -82 -79 -113 -20 -31
-41 -59 -47 -63 -16 -10 -49 55 -56 111 -5 43 -2 62 16 99 23 47 80 103 133
129 39 19 48 17 64 -15z m2774 -128 c65 -22 115 -51 290 -169 146 -97 532
-341 1007 -637 190 -118 301 -193 298 -201 -7 -17 -820 -1075 -963 -1251 -10
-13 -77 -8 -525 36 -786 79 -827 88 -1104 220 -371 178 -872 476 -1611 958
-226 147 -253 168 -253 191 0 49 90 375 127 462 48 112 99 197 121 204 25 8
121 -11 148 -29 13 -8 35 -36 50 -62 91 -163 248 -333 356 -385 94 -46 224
-80 329 -85 355 -20 968 247 1302 565 129 123 182 166 229 187 46 20 135 18
199 -4z m-2660 -1212 c550 -354 900 -567 1307 -796 24 -14 42 -27 40 -29 -4
-4 -455 58 -1203 165 -458 65 -445 61 -445 130 0 93 40 541 56 629 4 22 12 32
24 32 9 0 109 -59 221 -131z m4543 62 c61 -32 210 -117 331 -188 121 -72 243
-142 270 -155 163 -83 593 -256 1190 -480 362 -136 478 -183 518 -212 15 -11
42 -49 59 -84 27 -54 32 -77 36 -162 l5 -100 -124 0 c-403 0 -1368 54 -1999
110 -430 39 -1224 116 -1297 126 l-43 6 22 32 c97 139 899 1166 911 1166 6 0
60 -26 121 -59z m-4543 -871 c162 -22 420 -58 574 -80 630 -89 1328 -183 1615
-219 463 -58 1775 -189 2765 -276 449 -39 1021 -75 1660 -103 l160 -7 -40 -22
c-91 -48 -292 -95 -489 -116 -93 -9 -716 -12 -2711 -12 -2733 0 -2705 0 -3065
46 -361 46 -913 158 -947 192 -11 11 -58 246 -50 253 2 2 19 -1 38 -6 80 -24
531 -114 748 -150 506 -84 1117 -142 1523 -144 l177 -1 30 29 c37 36 40 68 8
100 -31 31 -59 34 -397 46 -466 17 -850 56 -1290 131 -373 63 -749 140 -780
159 -22 14 131 220 164 220 7 0 145 -18 307 -40z"/>
<path d="M3727 2673 c-2 -5 7 -60 20 -123 48 -224 8 -346 -137 -420 -74 -38
-166 -54 -315 -54 -180 -1 -180 -1 -1090 224 -568 140 -997 241 -1001 237 -8
-7 462 -231 1034 -493 633 -291 812 -362 1095 -436 119 -31 127 -32 347 -32
l225 -1 63 34 c73 40 111 80 151 159 74 146 64 307 -29 492 -65 129 -198 300
-299 384 -43 36 -56 42 -64 29z"/>
</g>
</svg>
