<svg id="svg" xmlns="http://www.w3.org/2000/svg" xmlns:xlink="http://www.w3.org/1999/xlink" width="400" height="400" viewBox="0, 0, 400,400"><g id="svgg"><path id="path0" d="M141.016 1.216 C 133.331 5.253,132.070 8.680,132.048 25.586 L 132.031 39.063 103.320 39.068 C 77.165 39.073,74.020 39.215,67.988 40.661 C 45.033 46.163,26.625 65.212,21.836 88.418 C 19.495 99.762,19.495 339.300,21.836 350.645 C 26.645 373.949,45.116 392.961,68.297 398.467 C 74.648 399.975,77.323 400.015,159.223 399.815 L 243.605 399.609 246.607 397.220 C 255.148 390.424,255.148 378.327,246.608 371.530 L 243.606 369.141 160.670 368.743 C 86.160 368.386,77.409 368.215,74.533 367.062 C 62.859 362.381,56.292 355.461,53.556 344.953 C 51.717 337.889,51.717 101.174,53.556 94.109 C 56.740 81.884,66.962 72.918,79.839 71.056 C 82.549 70.664,95.400 70.337,108.398 70.328 L 132.031 70.313 132.031 76.419 C 132.031 90.058,136.807 102.315,145.529 111.064 C 175.826 141.455,226.563 120.019,226.563 76.828 L 226.563 70.313 250.195 70.328 C 282.843 70.349,288.404 71.482,296.758 79.814 C 306.484 89.512,306.250 87.564,306.250 158.983 L 306.250 219.200 308.008 222.641 C 313.940 234.252,330.591 234.252,336.523 222.641 L 338.281 219.200 338.271 157.452 C 338.259 86.682,338.315 87.392,331.749 73.965 C 324.200 58.525,311.577 47.459,294.922 41.681 L 288.672 39.512 257.617 39.239 L 226.563 38.965 226.563 25.508 C 226.563 10.150,225.751 7.321,220.045 2.780 L 217.044 0.391 180.202 0.188 C 147.915 0.010,143.070 0.138,141.016 1.216 M194.514 56.055 C 194.495 83.916,194.352 84.752,188.774 89.649 C 186.383 91.749,181.320 93.554,178.906 93.168 C 178.691 93.134,177.206 92.897,175.606 92.641 C 171.970 92.059,167.407 88.147,165.520 83.991 C 164.240 81.175,164.095 78.357,164.080 56.055 L 164.063 31.250 179.297 31.250 L 194.531 31.250 194.514 56.055 M200.391 212.166 C 194.981 214.980,191.455 220.453,191.423 226.087 C 191.402 229.819,208.695 292.896,210.956 297.334 C 214.349 303.995,303.377 391.441,310.156 394.772 C 352.270 415.462,394.685 373.347,374.129 331.250 C 370.664 324.154,283.481 234.830,276.563 231.289 C 275.059 230.519,259.746 225.625,242.535 220.413 C 209.504 210.411,205.334 209.595,200.391 212.166 M248.046 255.757 L 260.867 259.766 289.154 288.534 L 317.442 317.303 306.970 327.795 L 296.499 338.288 267.842 309.639 L 239.186 280.990 235.218 266.793 C 233.035 258.985,231.250 252.181,231.250 251.674 C 231.250 250.539,231.711 250.651,248.046 255.757 M346.175 347.266 C 353.085 362.189,332.841 375.400,321.515 363.358 L 319.201 360.898 329.691 350.387 L 340.181 339.875 342.455 342.008 C 343.705 343.181,345.379 345.547,346.175 347.266 " stroke="none" fill="white" fill-rule="evenodd"></path></g></svg>